<svg width="149" height="182" viewBox="0 0 149 182" fill="none" xmlns="http://www.w3.org/2000/svg">
<path d="M71.4004 0.799805C86.8669 0.799859 99.8671 4.06634 110.4 10.5996C121.067 16.9996 129.067 25.8 134.4 37C139.867 48.2 142.6 60.9336 142.6 75.2002C142.6 88.4001 140.4 99.7336 136 109.2C132.893 115.997 128.829 122.084 123.813 127.467C130.283 133.722 136.752 139.977 143.222 146.232C145.082 148.031 146.943 149.829 148.804 151.628L109.708 181.167C108.486 178.886 107.263 176.605 106.041 174.324C101.139 165.175 96.2369 156.025 91.335 146.876C89.8076 147.304 88.1631 147.68 86.4004 148C82.0005 148.8 77.0002 149.2 71.4004 149.2C57.1337 149.2 44.5998 146.133 33.7998 140C23.1332 133.867 14.7998 125.267 8.7998 114.2C2.93316 103 2.58648e-05 90.0001 0 75.2002C0 60.9335 2.66667 48.2 8 37C13.4667 25.8 21.5335 16.9996 32.2002 10.5996C42.8668 4.06641 55.9339 0.799805 71.4004 0.799805ZM42.6689 56.042C41.0248 62.0446 40.2002 68.4303 40.2002 75.2002C40.2002 82.5335 41.2671 89.4667 43.4004 96C45.5337 102.533 48.8671 107.8 53.4004 111.8C58.067 115.8 64.0671 117.8 71.4004 117.8C72.4669 117.8 73.4672 117.733 74.4004 117.6C74.7814 117.545 75.162 117.477 75.543 117.4C64.585 96.9476 53.6271 76.4947 42.6689 56.042ZM71.4004 32.2002C63.9337 32.2002 57.8669 34.2671 53.2002 38.4004C49.4908 41.6734 46.585 45.7945 44.4824 50.7637C61.8576 67.5633 79.2322 84.3635 96.6074 101.163C98.1337 98.7877 99.4 96.0011 100.4 92.7998C101.734 88.3999 102.4 82.5333 102.4 75.2002C102.4 67.7336 101.333 60.7335 99.2002 54.2002C97.2003 47.6671 93.9335 42.4003 89.4004 38.4004C84.8671 34.2671 78.8669 32.2003 71.4004 32.2002Z" fill="#D9E0E4"/>
</svg>
