<svg width="275" height="82" viewBox="0 0 275 82" fill="none" xmlns="http://www.w3.org/2000/svg">
<path d="M28.95 52.85L26.35 49.65C25.6167 50.0167 24.7 50.3 23.6 50.5C22.5 50.7 21.25 50.8 19.85 50.8C16.2833 50.8 13.15 50.0333 10.45 48.5C7.78333 46.9667 5.7 44.8167 4.2 42.05C2.73333 39.25 2 36 2 32.3C2 28.7333 2.66667 25.55 4 22.75C5.36667 19.95 7.38333 17.75 10.05 16.15C12.7167 14.5167 15.9833 13.7 19.85 13.7C23.7167 13.7 26.9667 14.5167 29.6 16.15C32.2667 17.75 34.2667 19.95 35.6 22.75C36.9667 25.55 37.65 28.7333 37.65 32.3C37.65 35.6 37.1 38.4333 36 40.8C34.9333 43.1333 33.4167 45.1333 31.45 46.8L36.35 52.85H28.95ZM19.85 42.95C20.1167 42.95 20.3667 42.9333 20.6 42.9C20.8333 42.8667 21.0667 42.8167 21.3 42.75L16.55 36.95H23.95L25.75 39.35C26.3167 38.65 26.7667 37.7667 27.1 36.7C27.4333 35.6 27.6 34.1333 27.6 32.3C27.6 30.4333 27.3333 28.6833 26.8 27.05C26.3 25.4167 25.4833 24.1 24.35 23.1C23.2167 22.0667 21.7167 21.55 19.85 21.55C17.9833 21.55 16.4667 22.0667 15.3 23.1C14.1667 24.1 13.3333 25.4167 12.8 27.05C12.3 28.6833 12.05 30.4333 12.05 32.3C12.05 34.1333 12.3167 35.8667 12.85 37.5C13.3833 39.1333 14.2167 40.45 15.35 41.45C16.5167 42.45 18.0167 42.95 19.85 42.95ZM55.4484 50.8C52.3151 50.8 49.5818 50.2333 47.2484 49.1C44.9484 47.9667 43.1651 46.3667 41.8984 44.3C40.6318 42.2 39.9984 39.7333 39.9984 36.9V14.45H49.7984V36.9C49.7984 38.8333 50.2818 40.3333 51.2484 41.4C52.2151 42.4333 53.6151 42.95 55.4484 42.95C57.3151 42.95 58.7318 42.4333 59.6984 41.4C60.6651 40.3333 61.1484 38.8333 61.1484 36.9V14.45H70.9484V36.9C70.9484 39.7333 70.3151 42.2 69.0484 44.3C67.7818 46.3667 65.9818 47.9667 63.6484 49.1C61.3484 50.2333 58.6151 50.8 55.4484 50.8ZM75.1254 50V14.5H101.425V22.35H84.9254V28.3H100.825V36.1H84.9254V42.15H101.825V50H75.1254ZM120.065 50.8C116.798 50.8 114.015 50.2833 111.715 49.25C109.415 48.2167 107.632 46.75 106.365 44.85C105.098 42.95 104.382 40.7 104.215 38.1L113.965 37.65C114.132 38.8167 114.465 39.8167 114.965 40.65C115.465 41.45 116.132 42.0667 116.965 42.5C117.832 42.9 118.898 43.1 120.165 43.1C121.165 43.1 122.015 43 122.715 42.8C123.415 42.5667 123.948 42.2167 124.315 41.75C124.682 41.2833 124.865 40.7 124.865 40C124.865 39.3667 124.698 38.8167 124.365 38.35C124.065 37.85 123.448 37.4167 122.515 37.05C121.615 36.65 120.265 36.2667 118.465 35.9C115.232 35.2333 112.615 34.4667 110.615 33.6C108.615 32.7 107.148 31.55 106.215 30.15C105.315 28.75 104.865 26.9667 104.865 24.8C104.865 22.6 105.432 20.6667 106.565 19C107.698 17.3333 109.332 16.0333 111.465 15.1C113.598 14.1667 116.165 13.7 119.165 13.7C122.332 13.7 124.982 14.2333 127.115 15.3C129.248 16.3667 130.898 17.8333 132.065 19.7C133.265 21.5667 133.982 23.7333 134.215 26.2L124.565 26.6C124.498 25.5 124.232 24.5667 123.765 23.8C123.298 23.0333 122.665 22.45 121.865 22.05C121.098 21.6167 120.165 21.4 119.065 21.4C117.665 21.4 116.582 21.6833 115.815 22.25C115.048 22.8167 114.665 23.5667 114.665 24.5C114.665 25.2333 114.848 25.85 115.215 26.35C115.615 26.85 116.248 27.2667 117.115 27.6C118.015 27.9333 119.232 28.2333 120.765 28.5C124.265 29.1 127.032 29.9167 129.065 30.95C131.098 31.9833 132.532 33.2167 133.365 34.65C134.232 36.0833 134.665 37.7333 134.665 39.6C134.665 41.9 134.082 43.9 132.915 45.6C131.782 47.2667 130.115 48.55 127.915 49.45C125.748 50.35 123.132 50.8 120.065 50.8ZM144.012 50V22.35H133.662V14.5H164.212V22.35H153.862V50H144.012ZM165.268 50V14.5H182.218C184.885 14.5 187.201 14.9333 189.168 15.8C191.168 16.6667 192.701 17.8833 193.768 19.45C194.868 21.0167 195.418 22.8667 195.418 25C195.418 26.6667 195.101 28.15 194.468 29.45C193.835 30.7167 192.918 31.7667 191.718 32.6C190.518 33.4333 189.068 34 187.368 34.3L187.268 33.8C189.768 33.8 191.635 34.3333 192.868 35.4C194.101 36.4333 194.785 37.9667 194.918 40L195.718 50H185.718L185.218 41.7C185.151 40.4 184.801 39.45 184.168 38.85C183.535 38.2167 182.418 37.9 180.818 37.9H175.068V50H165.268ZM175.068 30.05H180.418C182.051 30.05 183.285 29.7167 184.118 29.05C184.985 28.35 185.418 27.3833 185.418 26.15C185.418 24.8833 184.985 23.9333 184.118 23.3C183.285 22.6667 182.051 22.35 180.418 22.35H175.068V30.05ZM198.961 50V14.5H208.761V50H198.961ZM210.289 50L223.089 14.5H234.239L247.039 50H237.039L235.039 44.15H222.239L220.239 50H210.289ZM224.839 36.55H232.489L228.689 25.3L224.839 36.55ZM248.135 50V14.5H257.935V47.95L252.335 42.15H273.385V50H248.135Z" fill="black"/>
<path d="M1.33984 75.5V60.1567H6.91531L10.1569 69.9029L13.3984 60.1567H18.9739V75.5H14.7383V66.8559L11.648 75.4352H8.64413L5.57547 66.8559V75.5H1.33984ZM24.1531 75.7593C22.9285 75.7593 21.92 75.4784 21.1276 74.9165C20.3353 74.3547 19.9391 73.5695 19.9391 72.561C19.9391 71.5237 20.2776 70.7313 20.9548 70.1839C21.6463 69.622 22.626 69.2042 23.8938 68.9305L27.3946 68.1957C27.3946 67.5906 27.265 67.1296 27.0057 66.8126C26.7463 66.4957 26.3862 66.3372 25.9251 66.3372C25.4353 66.3372 25.0535 66.4597 24.7798 66.7046C24.5205 66.9351 24.3548 67.2809 24.2828 67.7419L20.1336 67.6122C20.3641 66.2004 20.9764 65.1775 21.9705 64.5436C22.9645 63.8952 24.2828 63.5711 25.9251 63.5711C27.8269 63.5711 29.2459 63.9817 30.1824 64.8029C31.1188 65.6241 31.5871 66.8703 31.5871 68.5415V71.9559C31.5871 72.3305 31.6447 72.5754 31.7599 72.6907C31.8896 72.8059 32.0625 72.8635 32.2786 72.8635H32.5163V75.5C32.3866 75.5432 32.1777 75.5792 31.8896 75.6081C31.6015 75.6513 31.3205 75.6729 31.0468 75.6729C30.629 75.6729 30.1968 75.6008 29.7502 75.4568C29.3036 75.3127 28.929 75.039 28.6264 74.6356C28.3239 74.2178 28.1726 73.6127 28.1726 72.8203L28.4752 73.1661C28.3167 73.6991 28.0574 74.1602 27.6972 74.5491C27.337 74.9381 26.8616 75.2407 26.2709 75.4568C25.6946 75.6585 24.9887 75.7593 24.1531 75.7593ZM25.3201 73.1229C25.709 73.1229 26.0548 73.0436 26.3574 72.8851C26.6743 72.7267 26.9264 72.489 27.1137 72.172C27.301 71.8406 27.3946 71.4228 27.3946 70.9186V70.5296L25.4929 71.005C25.1328 71.0915 24.8302 71.2356 24.5853 71.4373C24.3548 71.6245 24.2395 71.8695 24.2395 72.172C24.2395 72.4746 24.326 72.7123 24.4989 72.8851C24.6717 73.0436 24.9455 73.1229 25.3201 73.1229ZM32.8887 75.5V60.1567H37.0811V67.6338L40.5388 63.8304H45.4227L40.9278 68.5415L45.5092 75.5H41.0574L38.2481 70.7889L37.0811 72.0423V75.5H32.8887ZM50.6877 75.7593C49.4343 75.7593 48.3394 75.5072 47.4029 75.003C46.4665 74.4987 45.739 73.7928 45.2203 72.8851C44.7017 71.9631 44.4423 70.8898 44.4423 69.6652C44.4423 68.4406 44.7017 67.3745 45.2203 66.4669C45.739 65.5592 46.4665 64.8533 47.4029 64.3491C48.3394 63.8304 49.4343 63.5711 50.6877 63.5711C51.9411 63.5711 53.0216 63.8376 53.9293 64.3707C54.8513 64.8893 55.5572 65.6313 56.0471 66.5965C56.5369 67.5618 56.7818 68.6999 56.7818 70.011V70.7457H48.7644C48.7932 71.4517 48.9877 71.9775 49.3479 72.3233C49.7225 72.6546 50.1979 72.8203 50.7742 72.8203C51.192 72.8203 51.5449 72.7411 51.8331 72.5826C52.1356 72.4241 52.3517 72.1432 52.4814 71.7398L56.6306 71.9559C56.3136 73.2093 55.6221 74.1602 54.556 74.8085C53.4899 75.4424 52.2004 75.7593 50.6877 75.7593ZM48.7644 68.4983H52.5894C52.575 67.8211 52.3949 67.3097 52.0492 66.9639C51.7034 66.6037 51.2496 66.4237 50.6877 66.4237C50.1547 66.4237 49.7081 66.6109 49.3479 66.9855C49.0021 67.3601 48.8076 67.8643 48.7644 68.4983ZM65.0507 75.5V63.5495H60.5773V60.1567H73.7812V63.5495H69.3079V75.5H65.0507ZM74.1079 75.5V60.1567H78.3003V66.6398L77.7385 66.683C77.8249 65.977 78.0338 65.4008 78.3652 64.9542C78.7109 64.4931 79.1359 64.1474 79.6402 63.9169C80.1588 63.6863 80.7207 63.5711 81.3258 63.5711C82.219 63.5711 82.961 63.7584 83.5516 64.133C84.1423 64.5075 84.5817 65.0334 84.8699 65.7105C85.1724 66.3732 85.3237 67.1368 85.3237 68.0012V75.5H81.1313V68.9305C81.1313 68.2389 81.0376 67.7131 80.8503 67.3529C80.6631 66.9783 80.3173 66.791 79.8131 66.791C79.3232 66.791 78.9486 66.9783 78.6893 67.3529C78.43 67.7275 78.3003 68.2966 78.3003 69.0601V75.5H74.1079ZM92.3079 75.7593C91.0545 75.7593 89.9596 75.5072 89.0231 75.003C88.0867 74.4987 87.3591 73.7928 86.8405 72.8851C86.3218 71.9631 86.0625 70.8898 86.0625 69.6652C86.0625 68.4406 86.3218 67.3745 86.8405 66.4669C87.3591 65.5592 88.0867 64.8533 89.0231 64.3491C89.9596 63.8304 91.0545 63.5711 92.3079 63.5711C93.5613 63.5711 94.6418 63.8376 95.5494 64.3707C96.4715 64.8893 97.1774 65.6313 97.6672 66.5965C98.1571 67.5618 98.402 68.6999 98.402 70.011V70.7457H90.3846C90.4134 71.4517 90.6079 71.9775 90.968 72.3233C91.3426 72.6546 91.818 72.8203 92.3943 72.8203C92.8121 72.8203 93.1651 72.7411 93.4532 72.5826C93.7558 72.4241 93.9719 72.1432 94.1015 71.7398L98.2507 71.9559C97.9338 73.2093 97.2422 74.1602 96.1761 74.8085C95.11 75.4424 93.8206 75.7593 92.3079 75.7593ZM90.3846 68.4983H94.2096C94.1952 67.8211 94.0151 67.3097 93.6693 66.9639C93.3236 66.6037 92.8697 66.4237 92.3079 66.4237C91.7748 66.4237 91.3282 66.6109 90.968 66.9855C90.6223 67.3601 90.4278 67.8643 90.3846 68.4983ZM106.973 75.5L102.759 60.1567H107.125L109.415 69.622L111.771 60.1567H115.142L117.498 69.622L119.767 60.1567H124.132L119.94 75.5H115.617L113.456 67.072L111.295 75.5H106.973ZM129.685 75.7593C128.432 75.7593 127.337 75.5072 126.401 75.003C125.464 74.4987 124.737 73.7928 124.218 72.8851C123.699 71.9631 123.44 70.8898 123.44 69.6652C123.44 68.4406 123.699 67.3745 124.218 66.4669C124.737 65.5592 125.464 64.8533 126.401 64.3491C127.337 63.8304 128.432 63.5711 129.685 63.5711C130.939 63.5711 132.019 63.8376 132.927 64.3707C133.849 64.8893 134.555 65.6313 135.045 66.5965C135.535 67.5618 135.779 68.6999 135.779 70.011V70.7457H127.762C127.791 71.4517 127.985 71.9775 128.345 72.3233C128.72 72.6546 129.195 72.8203 129.772 72.8203C130.19 72.8203 130.543 72.7411 130.831 72.5826C131.133 72.4241 131.349 72.1432 131.479 71.7398L135.628 71.9559C135.311 73.2093 134.62 74.1602 133.554 74.8085C132.487 75.4424 131.198 75.7593 129.685 75.7593ZM127.762 68.4983H131.587C131.573 67.8211 131.393 67.3097 131.047 66.9639C130.701 66.6037 130.247 66.4237 129.685 66.4237C129.152 66.4237 128.706 66.6109 128.345 66.9855C128 67.3601 127.805 67.8643 127.762 68.4983ZM144.207 75.7593C143.386 75.7593 142.688 75.5936 142.111 75.2623C141.535 74.9165 141.081 74.4339 140.75 73.8144L140.685 75.5H136.601V60.1567H140.793V65.516C141.124 64.9253 141.578 64.4571 142.154 64.1114C142.731 63.7512 143.415 63.5711 144.207 63.5711C145.173 63.5711 146.008 63.8232 146.714 64.3275C147.435 64.8317 147.989 65.5448 148.378 66.4669C148.767 67.3745 148.962 68.4406 148.962 69.6652C148.962 70.8898 148.767 71.9631 148.378 72.8851C147.989 73.7928 147.435 74.4987 146.714 75.003C146.008 75.5072 145.173 75.7593 144.207 75.7593ZM142.781 72.7555C143.329 72.7555 143.775 72.489 144.121 71.9559C144.481 71.4228 144.661 70.6593 144.661 69.6652C144.661 68.6711 144.488 67.9076 144.143 67.3745C143.811 66.8415 143.357 66.5749 142.781 66.5749C142.363 66.5749 142.003 66.6974 141.701 66.9423C141.398 67.1728 141.168 67.5186 141.009 67.9796C140.865 68.4406 140.793 69.0025 140.793 69.6652C140.793 70.3135 140.865 70.8682 141.009 71.3292C141.168 71.7902 141.398 72.1432 141.701 72.3881C142.003 72.633 142.363 72.7555 142.781 72.7555ZM160.653 75.8458C159.155 75.8458 157.866 75.5144 156.785 74.8517C155.705 74.1746 154.869 73.2381 154.278 72.0423C153.702 70.8466 153.414 69.4491 153.414 67.8499C153.414 66.3084 153.709 64.9325 154.3 63.7224C154.905 62.5122 155.77 61.5613 156.893 60.8698C158.017 60.1639 159.371 59.8109 160.956 59.8109C162.353 59.8109 163.528 60.0342 164.478 60.4808C165.444 60.913 166.214 61.5469 166.791 62.3825C167.381 63.2181 167.799 64.2266 168.044 65.408L163.657 65.5809C163.528 64.8173 163.254 64.2338 162.836 63.8304C162.418 63.4126 161.806 63.2037 160.999 63.2037C160.308 63.2037 159.717 63.3982 159.227 63.7872C158.752 64.1762 158.384 64.7164 158.125 65.408C157.88 66.0995 157.758 66.9135 157.758 67.8499C157.758 68.772 157.873 69.5788 158.103 70.2703C158.348 70.9618 158.716 71.5021 159.206 71.8911C159.695 72.2657 160.322 72.4529 161.086 72.4529C161.619 72.4529 162.073 72.3665 162.447 72.1936C162.836 72.0063 163.146 71.747 163.376 71.4156C163.621 71.0699 163.78 70.6593 163.852 70.1839H160.978V67.3745H168.087V75.5H165.624L165.408 72.3881L165.883 72.4746C165.753 73.1517 165.444 73.7424 164.954 74.2466C164.478 74.7508 163.866 75.147 163.117 75.4352C162.382 75.7089 161.561 75.8458 160.653 75.8458ZM169.399 75.5V63.8304H173.461L173.591 67.5042L173.288 67.461C173.504 66.1643 173.85 65.2351 174.326 64.6732C174.801 64.1114 175.471 63.8304 176.335 63.8304H177.33V67.1584H176.292C175.673 67.1584 175.161 67.2232 174.758 67.3529C174.369 67.4682 174.074 67.6771 173.872 67.9796C173.685 68.2821 173.591 68.7072 173.591 69.2546V75.5H169.399ZM183.23 75.7593C181.977 75.7593 180.882 75.5072 179.945 75.003C179.009 74.4987 178.281 73.7928 177.763 72.8851C177.244 71.9631 176.985 70.8898 176.985 69.6652C176.985 68.4406 177.244 67.3745 177.763 66.4669C178.281 65.5592 179.009 64.8533 179.945 64.3491C180.882 63.8304 181.977 63.5711 183.23 63.5711C184.483 63.5711 185.564 63.8376 186.472 64.3707C187.394 64.8893 188.1 65.6313 188.589 66.5965C189.079 67.5618 189.324 68.6999 189.324 70.011V70.7457H181.307C181.335 71.4517 181.53 71.9775 181.89 72.3233C182.265 72.6546 182.74 72.8203 183.316 72.8203C183.734 72.8203 184.087 72.7411 184.375 72.5826C184.678 72.4241 184.894 72.1432 185.024 71.7398L189.173 71.9559C188.856 73.2093 188.164 74.1602 187.098 74.8085C186.032 75.4424 184.743 75.7593 183.23 75.7593ZM181.307 68.4983H185.132C185.117 67.8211 184.937 67.3097 184.591 66.9639C184.246 66.6037 183.792 66.4237 183.23 66.4237C182.697 66.4237 182.25 66.6109 181.89 66.9855C181.544 67.3601 181.35 67.8643 181.307 68.4983ZM193.841 75.7593C192.616 75.7593 191.608 75.4784 190.815 74.9165C190.023 74.3547 189.627 73.5695 189.627 72.561C189.627 71.5237 189.965 70.7313 190.642 70.1839C191.334 69.622 192.314 69.2042 193.581 68.9305L197.082 68.1957C197.082 67.5906 196.953 67.1296 196.693 66.8126C196.434 66.4957 196.074 66.3372 195.613 66.3372C195.123 66.3372 194.741 66.4597 194.467 66.7046C194.208 66.9351 194.042 67.2809 193.97 67.7419L189.821 67.6122C190.052 66.2004 190.664 65.1775 191.658 64.5436C192.652 63.8952 193.97 63.5711 195.613 63.5711C197.514 63.5711 198.934 63.9817 199.87 64.8029C200.806 65.6241 201.275 66.8703 201.275 68.5415V71.9559C201.275 72.3305 201.332 72.5754 201.448 72.6907C201.577 72.8059 201.75 72.8635 201.966 72.8635H202.204V75.5C202.074 75.5432 201.865 75.5792 201.577 75.6081C201.289 75.6513 201.008 75.6729 200.734 75.6729C200.317 75.6729 199.884 75.6008 199.438 75.4568C198.991 75.3127 198.617 75.039 198.314 74.6356C198.011 74.2178 197.86 73.6127 197.86 72.8203L198.163 73.1661C198.004 73.6991 197.745 74.1602 197.385 74.5491C197.025 74.9381 196.549 75.2407 195.958 75.4568C195.382 75.6585 194.676 75.7593 193.841 75.7593ZM195.008 73.1229C195.397 73.1229 195.742 73.0436 196.045 72.8851C196.362 72.7267 196.614 72.489 196.801 72.172C196.989 71.8406 197.082 71.4228 197.082 70.9186V70.5296L195.181 71.005C194.82 71.0915 194.518 71.2356 194.273 71.4373C194.042 71.6245 193.927 71.8695 193.927 72.172C193.927 72.4746 194.014 72.7123 194.186 72.8851C194.359 73.0436 194.633 73.1229 195.008 73.1229ZM207.363 75.5C206.052 75.5 205.094 75.1975 204.489 74.5924C203.884 73.9729 203.581 72.9932 203.581 71.6534V61.0859H207.773V71.0483C207.773 71.6245 207.889 72.0207 208.119 72.2368C208.364 72.4385 208.731 72.5394 209.221 72.5394H210.82V75.5H207.363ZM201.593 66.791V63.8304H210.82V66.791H201.593ZM214.588 75.5L220.12 60.1567H224.939L230.472 75.5H226.149L225.285 72.9716H219.753L218.888 75.5H214.588ZM220.877 69.6868H224.183L222.541 64.8245L220.877 69.6868ZM236.354 79.0009C235.057 79.0009 234.005 78.864 233.198 78.5903C232.406 78.3165 231.794 77.9348 231.362 77.4449C230.929 76.9695 230.62 76.422 230.432 75.8025L234.711 75.5C234.798 75.7737 234.956 75.9826 235.187 76.1267C235.432 76.2852 235.821 76.3644 236.354 76.3644C236.944 76.3644 237.398 76.1987 237.715 75.8674C238.032 75.536 238.19 74.9814 238.19 74.2034V73.3606C237.917 73.8504 237.477 74.2466 236.872 74.5491C236.267 74.8517 235.59 75.003 234.841 75.003C233.904 75.003 233.076 74.7725 232.356 74.3114C231.635 73.8504 231.073 73.1949 230.67 72.3449C230.267 71.4949 230.065 70.4864 230.065 69.3194C230.065 68.1957 230.267 67.2016 230.67 66.3372C231.073 65.4728 231.635 64.7957 232.356 64.3058C233.076 63.816 233.904 63.5711 234.841 63.5711C235.72 63.5711 236.433 63.7584 236.98 64.133C237.528 64.5075 237.96 64.9974 238.277 65.6025V63.8304H242.426V74.1169C242.426 75.2407 242.16 76.1627 241.627 76.8831C241.108 77.6034 240.388 78.1365 239.465 78.4822C238.558 78.828 237.521 79.0009 236.354 79.0009ZM236.332 72.172C236.923 72.172 237.384 71.9199 237.715 71.4156C238.061 70.9114 238.234 70.1983 238.234 69.2762C238.234 68.6711 238.154 68.1525 237.996 67.7203C237.852 67.2881 237.636 66.9567 237.348 66.7262C237.074 66.4957 236.735 66.3804 236.332 66.3804C235.712 66.3804 235.23 66.647 234.884 67.18C234.538 67.7131 234.365 68.4118 234.365 69.2762C234.365 70.155 234.546 70.861 234.906 71.394C235.266 71.9127 235.741 72.172 236.332 72.172ZM247.681 75.7593C246.456 75.7593 245.448 75.4784 244.655 74.9165C243.863 74.3547 243.467 73.5695 243.467 72.561C243.467 71.5237 243.805 70.7313 244.482 70.1839C245.174 69.622 246.154 69.2042 247.421 68.9305L250.922 68.1957C250.922 67.5906 250.793 67.1296 250.533 66.8126C250.274 66.4957 249.914 66.3372 249.453 66.3372C248.963 66.3372 248.581 66.4597 248.307 66.7046C248.048 66.9351 247.882 67.2809 247.81 67.7419L243.661 67.6122C243.892 66.2004 244.504 65.1775 245.498 64.5436C246.492 63.8952 247.81 63.5711 249.453 63.5711C251.355 63.5711 252.774 63.9817 253.71 64.8029C254.647 65.6241 255.115 66.8703 255.115 68.5415V71.9559C255.115 72.3305 255.172 72.5754 255.288 72.6907C255.417 72.8059 255.59 72.8635 255.806 72.8635H256.044V75.5C255.914 75.5432 255.705 75.5792 255.417 75.6081C255.129 75.6513 254.848 75.6729 254.574 75.6729C254.157 75.6729 253.724 75.6008 253.278 75.4568C252.831 75.3127 252.457 75.039 252.154 74.6356C251.852 74.2178 251.7 73.6127 251.7 72.8203L252.003 73.1661C251.844 73.6991 251.585 74.1602 251.225 74.5491C250.865 74.9381 250.389 75.2407 249.799 75.4568C249.222 75.6585 248.516 75.7593 247.681 75.7593ZM248.848 73.1229C249.237 73.1229 249.582 73.0436 249.885 72.8851C250.202 72.7267 250.454 72.489 250.641 72.172C250.829 71.8406 250.922 71.4228 250.922 70.9186V70.5296L249.021 71.005C248.66 71.0915 248.358 71.2356 248.113 71.4373C247.882 71.6245 247.767 71.8695 247.767 72.172C247.767 72.4746 247.854 72.7123 248.027 72.8851C248.199 73.0436 248.473 73.1229 248.848 73.1229ZM256.416 75.5V63.8304H260.609V75.5H256.416ZM256.352 62.6635V59.7245H260.674V62.6635H256.352ZM262.263 75.5V63.8304H266.023L266.196 67.5474L265.677 67.5042C265.764 66.5101 265.98 65.7321 266.326 65.1703C266.686 64.594 267.133 64.1834 267.666 63.9385C268.213 63.6936 268.818 63.5711 269.481 63.5711C270.288 63.5711 270.986 63.744 271.577 64.0897C272.182 64.4355 272.65 64.9397 272.982 65.6025C273.313 66.2508 273.479 67.0504 273.479 68.0012V75.5H269.286V69.4491C269.286 68.8872 269.25 68.4118 269.178 68.0228C269.121 67.6194 268.991 67.3169 268.789 67.1152C268.602 66.8991 268.321 66.791 267.947 66.791C267.413 66.791 267.032 67.0215 266.801 67.4826C266.571 67.9436 266.455 68.5991 266.455 69.4491V75.5H262.263Z" fill="black"/>
</svg>
